<?xml version="1.0" encoding="UTF-8"?>
<svg xmlns="http://www.w3.org/2000/svg" xmlns:xlink="http://www.w3.org/1999/xlink" width="3750" height="3750" viewBox="0 0 3750 3750">
<rect x="-375" y="-375" width="4500" height="4500" fill="rgb(100%, 100%, 100%)" fill-opacity="1"/>
<path fill-rule="nonzero" fill="rgb(19.213867%, 19.213867%, 19.213867%)" fill-opacity="1" d="M 3322.378906 1874.960938 C 3322.378906 2258.828125 3169.890625 2626.96875 2898.460938 2898.40625 C 2627.03125 3169.839844 2258.878906 3322.332031 1875.019531 3322.332031 C 1491.148438 3322.332031 1123.011719 3169.839844 851.570312 2898.40625 C 580.136719 2626.96875 427.648438 2258.828125 427.648438 1874.960938 C 427.648438 1491.101562 580.136719 1122.949219 851.570312 851.519531 C 1123.011719 580.089844 1491.148438 427.589844 1875.019531 427.589844 C 2258.878906 427.589844 2627.03125 580.089844 2898.460938 851.519531 C 3169.890625 1122.949219 3322.378906 1491.101562 3322.378906 1874.960938 Z M 3322.378906 1874.960938 "/>
<path fill-rule="nonzero" fill="rgb(33.714294%, 33.714294%, 33.714294%)" fill-opacity="1" d="M 1874.171875 633.648438 L 1874.039062 633.78125 C 1873.960938 633.820312 1873.878906 633.859375 1873.789062 633.910156 C 1703.53125 633.78125 1517.761719 676.738281 1363.230469 810.941406 C 1363.101562 811.019531 1362.980469 811.109375 1362.851562 811.191406 C 1349.109375 823.308594 1340.558594 840.210938 1339.019531 858.539062 C 1339.019531 858.589844 1339.019531 858.621094 1339.019531 858.671875 L 1286.71875 1498.5 C 1286.679688 1498.800781 1286.640625 1499.089844 1286.589844 1499.371094 C 1285.339844 1518.261719 1292.359375 1535.660156 1303.980469 1549.339844 L 1307.320312 1594.871094 C 1249.738281 1641.808594 1241.75 1719.441406 1254.390625 1795.320312 C 1277.75 1935.460938 1383.070312 1990.890625 1421.53125 2008.710938 C 1425.160156 2016.160156 1431.390625 2028.949219 1440.050781 2046.960938 L 1429.929688 2301.449219 C 1419.871094 2304.78125 1412.75 2306.871094 1401.179688 2310.941406 C 1380.46875 2318.21875 1359.089844 2326.320312 1340.019531 2334.628906 C 1330.550781 2338.761719 1321.300781 2342.980469 1312.25 2348.070312 C 1305.699219 2351.738281 1291.601562 2359.789062 1280.289062 2373.359375 C 1267.121094 2389.160156 1262.089844 2408.101562 1260.191406 2414.570312 C 1256.941406 2425.621094 1254.460938 2436.96875 1252.058594 2449.109375 C 1247.199219 2473.550781 1242.679688 2501.980469 1238.859375 2529.78125 C 1234.78125 2559.558594 1233.859375 2570.519531 1231.960938 2587.738281 C 1200.46875 2595.5 1133.75 2611.738281 1027.539062 2640.421875 C 961.964844 2658.121094 893.777344 2677.328125 836.332031 2695.191406 C 792.058594 2708.96875 755.230469 2721.058594 725.933594 2734.171875 C 722.382812 2735.941406 719.046875 2738.101562 715.980469 2740.621094 C 988.96875 3106.433594 1418.53125 3322.046875 1874.96875 3322.359375 C 2360.949219 3322.03125 2814.308594 3077.839844 3082 2672.238281 C 3040.539062 2629.570312 2982.851562 2608.929688 2919.710938 2588.390625 C 2840.128906 2562.5 2745.808594 2542.398438 2654.359375 2526.460938 C 2496.730469 2498.980469 2383.71875 2489.460938 2348.058594 2486.230469 C 2342.109375 2440.359375 2337.910156 2394 2315.75 2363.519531 C 2315.679688 2363.390625 2315.558594 2363.390625 2315.488281 2363.261719 C 2330.140625 2338.511719 2344.710938 2314.058594 2359.660156 2287.410156 C 2388.910156 2235.300781 2417.648438 2182.140625 2440.441406 2138.390625 C 2463.179688 2094.730469 2478.921875 2063.460938 2487.328125 2042.429688 C 2494.570312 2024.308594 2496.75 2008.320312 2499.539062 1989.640625 C 2502.460938 1970.089844 2505.179688 1946.839844 2507.808594 1920.910156 C 2513.070312 1868.929688 2517.96875 1805.761719 2522.230469 1744.289062 C 2529.230469 1643.339844 2532.851562 1573.699219 2534.441406 1543.808594 C 2550.25 1529.449219 2560.109375 1508.558594 2558.128906 1485.851562 C 2558.128906 1485.839844 2558.128906 1485.828125 2558.128906 1485.820312 C 2558.128906 1485.820312 2558.128906 1485.808594 2558.128906 1485.800781 C 2558.128906 1485.789062 2558.128906 1485.78125 2558.128906 1485.769531 C 2558.128906 1485.761719 2558.128906 1485.75 2558.128906 1485.738281 C 2558.128906 1485.730469 2558.128906 1485.730469 2558.128906 1485.710938 C 2558.128906 1485.710938 2558.128906 1485.699219 2558.128906 1485.691406 C 2558.128906 1485.679688 2558.128906 1485.671875 2558.128906 1485.660156 C 2558.128906 1485.648438 2558.128906 1485.640625 2558.128906 1485.628906 C 2558.128906 1485.621094 2558.128906 1485.621094 2558.128906 1485.609375 L 2499.058594 832.660156 C 2496.839844 808.148438 2482.019531 786.761719 2460.429688 775.820312 C 2460.058594 775.628906 2296.191406 691.570312 2079.878906 652.941406 C 2025.761719 643.269531 1967.96875 636.328125 1908.179688 634.328125 L 1908.050781 634.328125 C 1896.800781 633.949219 1885.488281 633.699219 1874.128906 633.699219 Z M 1874.171875 633.648438 "/>
<path fill-rule="nonzero" fill="rgb(10.205078%, 10.205078%, 10.205078%)" fill-opacity="1" d="M 1859.089844 701.210938 C 1699.378906 701.199219 1536.558594 753.949219 1413.738281 857.109375 C 1386.710938 955.390625 1394.238281 1063.460938 1380.730469 1165.609375 C 1377.570312 1263.839844 1355.691406 1362.859375 1359.828125 1459.300781 C 1393.429688 1507.828125 1433.699219 1437.140625 1470.5 1429.941406 C 1619.628906 1354.25 1788.28125 1332.28125 1952.011719 1347.671875 C 2122.230469 1353.25 2288.570312 1385.191406 2443.398438 1456.320312 C 2501.769531 1451.390625 2472.078125 1374.789062 2475.960938 1336.589844 C 2460.109375 1173.929688 2457.871094 1008.171875 2423 848.308594 C 2390.5 795.46875 2313.871094 796.109375 2262.289062 769.988281 C 2132.390625 727.230469 1996.21875 700.210938 1859.089844 701.210938 Z M 1859.089844 701.210938 "/>
<path fill-rule="nonzero" fill="rgb(19.213867%, 19.213867%, 19.213867%)" fill-opacity="1" d="M 2287.199219 780.25 C 2301.96875 816.949219 2324.820312 860.128906 2342.519531 912.871094 C 2371.941406 1000.511719 2386.960938 1114.429688 2393.21875 1194.558594 C 2399.480469 1274.691406 2396.960938 1321 2380.679688 1373.578125 C 2375.699219 1389.679688 2369.429688 1406.378906 2363.628906 1423.460938 C 2390.519531 1433.328125 2417.128906 1444.25 2443.398438 1456.308594 C 2501.769531 1451.378906 2472.070312 1374.789062 2475.949219 1336.589844 C 2460.101562 1173.929688 2457.871094 1008.179688 2423 848.328125 C 2395.410156 803.46875 2336.070312 797.109375 2287.199219 780.25 Z M 2287.199219 780.25 "/>
<path fill-rule="nonzero" fill="rgb(100%, 100%, 100%)" fill-opacity="1" d="M 1486.609375 2354.28125 C 1480.609375 2354.410156 1474.609375 2354.46875 1468.609375 2354.589844 C 1422.710938 2376.179688 1364.539062 2381.21875 1329 2420.300781 C 1304.949219 2471.320312 1306 2530.640625 1296.339844 2585.53125 C 1290.070312 2606.128906 1299.289062 2642.429688 1269.03125 2642.921875 C 1102.929688 2688.898438 933.992188 2726.648438 771.65625 2785.03125 C 765.5625 2787.539062 761.175781 2791.03125 758.167969 2795.121094 C 1033.019531 3128.839844 1442.671875 3322.214844 1875 3322.332031 C 2336.910156 3322.085938 2770.96875 3101.386719 3043.300781 2728.300781 C 3027.808594 2699.761719 2989.480469 2687.039062 2961.648438 2672.980469 C 2785.460938 2605.519531 2596.5 2580.671875 2410.429688 2556.539062 C 2374.570312 2551.46875 2335.890625 2549.359375 2301.878906 2540.980469 C 2293.429688 2486.058594 2290.71875 2419.570312 2245.171875 2381.410156 C 2209.679688 2363.160156 2197.570312 2412.640625 2177.71875 2433.011719 C 2160.171875 2449.480469 2146.039062 2468.921875 2133.359375 2488.519531 C 2066.519531 2542.941406 1994.851562 2599.109375 1909.460938 2619.449219 C 1831.089844 2628.128906 1760.019531 2582.96875 1690.300781 2554.199219 C 1627.390625 2522.640625 1561.011719 2492.441406 1502.960938 2454.488281 C 1497.671875 2421.210938 1521.519531 2375.128906 1486.609375 2354.269531 Z M 1486.609375 2354.28125 "/>
<path fill-rule="nonzero" fill="rgb(4.315186%, 4.315186%, 4.315186%)" fill-opacity="1" d="M 1554.730469 1381.21875 C 1488.839844 1404.570312 1420.730469 1436.789062 1371.730469 1487.179688 C 1359.898438 1529.660156 1371.480469 1579.320312 1378.199219 1623.699219 C 1389 1657.351562 1431.46875 1659.03125 1449.660156 1687.390625 C 1495.601562 1709.371094 1513.570312 1644.179688 1534.550781 1616.429688 C 1571.050781 1552.441406 1609.960938 1474.210938 1588.691406 1399.308594 C 1582.441406 1386.96875 1568.519531 1379.308594 1554.730469 1381.21875 Z M 1554.730469 1381.21875 "/>
<path fill-rule="nonzero" fill="rgb(100%, 100%, 100%)" fill-opacity="1" d="M 2080.820312 2120.058594 C 2051.808594 2119.75 2016.941406 2128.019531 1994.058594 2122.121094 C 1986.660156 2122.140625 1979.289062 2122.140625 1971.890625 2122.148438 C 1934.160156 2129 1857.480469 2104.03125 1857.058594 2162.890625 C 1919.628906 2255.019531 2068.199219 2238.320312 2131.761719 2156.371094 C 2127.480469 2127.210938 2106.421875 2120.320312 2080.820312 2120.058594 Z M 2080.820312 2120.058594 "/>
<path fill-rule="nonzero" fill="rgb(98.826599%, 75.78125%, 64.256287%)" fill-opacity="1" d="M 1860.300781 1334.121094 L 1846.429688 1334.179688 L 1838.570312 1334.210938 C 1758.53125 1342.53125 1659.929688 1331.609375 1594.898438 1385.46875 C 1578.460938 1468.371094 1568.789062 1558.070312 1516.871094 1630.390625 C 1498.589844 1652.101562 1471.5 1720.488281 1441.769531 1670.648438 C 1407.789062 1623.519531 1326.960938 1635.761719 1324.328125 1699.019531 C 1301.511719 1809.640625 1375.421875 1909.429688 1465.191406 1963.929688 C 1507.640625 2028.320312 1539.261719 2100.628906 1584.671875 2163.101562 C 1562.640625 2142.410156 1537.929688 2102.429688 1506.988281 2131 C 1499.339844 2230.828125 1500.570312 2334.769531 1492.550781 2435 C 1544.339844 2518.640625 1657.058594 2541.320312 1739.378906 2586.980469 C 1811.730469 2615.941406 1893.570312 2664.550781 1966.261719 2607.128906 C 2013.820312 2576.320312 2095.699219 2561.679688 2108.261719 2499.460938 C 2099.46875 2484.960938 2087.371094 2477 2073.308594 2472.75 C 2108.46875 2472.429688 2142.871094 2469.121094 2175.199219 2457.871094 C 2264.660156 2304.628906 2375.289062 2157.238281 2426.429688 1985.769531 C 2451.738281 1816.308594 2464.820312 1641.75 2467.789062 1472.238281 C 2293.128906 1359.25 2066.609375 1341.980469 1860.300781 1334.101562 Z M 1765.839844 1540.898438 C 1819.140625 1543.539062 1670.070312 1544.960938 1765.839844 1540.898438 Z M 2258.910156 1645.839844 C 2231.5 1650.671875 2245.089844 1736.289062 2209.679688 1711.140625 C 2221.269531 1672.109375 2136.53125 1672.941406 2187.488281 1659.871094 C 2210.140625 1650.808594 2234.488281 1645.78125 2258.910156 1645.839844 Z M 1787.679688 1649.910156 C 1817.230469 1652.480469 1776.808594 1703.140625 1758.878906 1715.648438 C 1743.078125 1698.910156 1740.261719 1665.640625 1719.46875 1658.070312 C 1736.101562 1653.929688 1753.289062 1651.390625 1770.460938 1652.011719 C 1777.808594 1650.160156 1783.460938 1649.550781 1787.679688 1649.910156 Z M 2083.570312 1938.589844 C 2084.128906 1939.03125 2084.339844 1939.96875 2084.199219 1941.640625 C 2106.570312 1985.128906 2005.378906 1999.769531 2056.78125 1961.980469 C 2061.21875 1960.109375 2079.800781 1935.699219 2083.570312 1938.589844 Z M 2154.339844 2120.628906 C 2090.71875 2216.140625 1934.589844 2258.480469 1857.691406 2155.230469 C 1806.101562 2117.53125 1861.878906 2124.441406 1897.910156 2128.488281 C 1981.03125 2137.960938 2083.179688 2132.179688 2154.339844 2120.628906 Z M 1964.191406 2469.589844 C 1970.660156 2469.710938 1977.128906 2469.839844 1983.609375 2470.089844 C 1977.039062 2470.148438 1970.539062 2470.078125 1964.191406 2469.589844 Z M 1964.191406 2469.589844 "/>
<path fill-rule="nonzero" fill="rgb(74.021912%, 36.473083%, 35.301208%)" fill-opacity="1" d="M 1521.109375 2087.859375 C 1514.101562 2087.808594 1514.730469 2123.851562 1506.988281 2130.988281 C 1504.519531 2163.28125 1503 2196.019531 1501.769531 2228.898438 C 1570.160156 2303.128906 1680.820312 2421.859375 1770.980469 2504.769531 C 1831.53125 2560.460938 1882.699219 2599.851562 1933.429688 2626.019531 C 1944.53125 2621.769531 1955.5 2615.621094 1966.261719 2607.121094 C 2013.820312 2576.308594 2134.210938 2533.78125 2146.769531 2471.550781 C 2137.980469 2457.070312 2087.371094 2476.980469 2073.308594 2472.738281 C 2108.460938 2472.421875 2142.871094 2469.109375 2175.199219 2457.859375 C 2179.230469 2450.941406 2183.351562 2444.050781 2187.460938 2437.160156 C 2183.210938 2438.441406 2178.949219 2439.738281 2174.730469 2440.910156 C 2082.71875 2466.578125 2000.101562 2465.308594 1948.769531 2458.429688 C 1897.441406 2451.550781 1877.390625 2439.050781 1816.039062 2381.460938 C 1754.691406 2323.871094 1652.03125 2221.199219 1587.550781 2154.21875 C 1576.308594 2142.539062 1567.480469 2133.261719 1558.320312 2123.648438 C 1566.671875 2137.109375 1575.378906 2150.300781 1584.671875 2163.089844 C 1568.148438 2147.570312 1536.460938 2046.910156 1529.078125 2066.601562 Z M 1964.191406 2469.578125 C 1970.660156 2469.710938 1977.121094 2469.828125 1983.609375 2470.089844 C 1977.039062 2470.148438 1970.539062 2470.058594 1964.191406 2469.578125 Z M 1964.191406 2469.578125 "/>
<path fill-rule="nonzero" fill="rgb(80.076599%, 80.076599%, 80.076599%)" fill-opacity="1" d="M 1486.609375 2354.28125 C 1480.609375 2354.410156 1474.609375 2354.46875 1468.609375 2354.589844 C 1446.859375 2364.820312 1422.371094 2371.398438 1398.820312 2379.589844 C 1394.351562 2393.871094 1393.160156 2409.140625 1399.128906 2424.03125 C 1414.171875 2461.589844 1474.261719 2496.640625 1547.5 2521.050781 C 1600.480469 2538.710938 1659.980469 2550.75 1706.578125 2561.300781 C 1701.140625 2558.898438 1695.699219 2556.441406 1690.289062 2554.199219 C 1627.378906 2522.640625 1561.03125 2492.441406 1502.980469 2454.488281 C 1497.691406 2421.210938 1521.539062 2375.160156 1486.628906 2354.300781 Z M 2109.070312 2508.109375 C 2049.109375 2555.898438 1984.609375 2601.558594 1909.460938 2619.460938 C 1871.890625 2623.621094 1835.980469 2615.339844 1801.109375 2602.488281 C 1804.808594 2610.351562 1805.621094 2619.769531 1805.378906 2631.839844 C 1804.738281 2663.128906 1797.230469 2711.96875 1762.808594 2745.769531 C 1728.378906 2779.5625 1667.039062 2798.34375 1670.171875 2825.269531 C 1673.308594 2852.191406 1740.921875 2887.257812 1780.980469 2950.488281 C 1821.039062 3013.71875 1833.550781 3105.101562 1801 3198.371094 C 1787 3238.476562 1764.808594 3278.871094 1748.230469 3316.085938 C 1790.378906 3320.023438 1832.679688 3322.113281 1875 3322.34375 C 1938.238281 3322.253906 2001.398438 3318.019531 2064.078125 3309.667969 C 2043.558594 3296.847656 2022.480469 3282.164062 2003.839844 3262.261719 C 1957.511719 3212.816406 1926.210938 3131.433594 1901.171875 3066.328125 C 1876.128906 3001.222656 1857.359375 2952.382812 1847.96875 2894.164062 C 1838.570312 2835.945312 1838.570312 2768.355469 1851.71875 2727.03125 C 1864.871094 2685.710938 1891.148438 2670.679688 1929.339844 2663.171875 C 1967.53125 2655.660156 2017.609375 2655.640625 2047.03125 2673.800781 C 2076.449219 2691.96875 2085.210938 2728.269531 2090.839844 2786.488281 C 2096.480469 2844.703125 2098.96875 2924.851562 2108.359375 2989.332031 C 2117.75 3053.808594 2134.039062 3102.625 2158.460938 3159.589844 C 2175.351562 3198.996094 2196.179688 3242.222656 2222.949219 3279.042969 C 2255.5 3270.976562 2287.769531 3261.777344 2319.691406 3251.464844 C 2302.449219 3225.164062 2283.101562 3196.710938 2264.890625 3168.347656 C 2215.429688 3091.351562 2175.359375 3016.25 2162.210938 2953.644531 C 2149.058594 2891.042969 2162.839844 2840.960938 2163.46875 2800.902344 C 2164.089844 2760.839844 2151.558594 2730.800781 2140.910156 2678.839844 C 2131.960938 2635.109375 2124.320312 2575.820312 2109.070312 2508.140625 Z M 2109.070312 2508.109375 "/>
<path fill-rule="nonzero" fill="rgb(80.076599%, 80.076599%, 80.076599%)" fill-opacity="1" d="M 2882.230469 2645.679688 C 2865.820312 2711.25 2842.539062 2778.851562 2815.128906 2852.195312 C 2794.230469 2908.136719 2771.160156 2967.320312 2754.640625 3023.324219 C 2864.460938 2939.28125 2961.671875 2839.929688 3043.300781 2728.300781 C 3027.808594 2699.769531 2989.480469 2687.050781 2961.648438 2672.980469 C 2935.460938 2662.960938 2908.941406 2653.960938 2882.230469 2645.679688 Z M 959.324219 2725.78125 C 896.15625 2743.609375 833.433594 2762.824219 771.65625 2785.042969 C 765.554688 2787.554688 761.179688 2791.066406 758.167969 2795.160156 C 883.617188 2947.441406 1038.878906 3072.464844 1214.410156 3162.550781 C 1195.019531 3137.917969 1176.691406 3113.628906 1159.988281 3090.070312 C 1059.769531 2948.648438 1010.699219 2831.78125 959.324219 2725.78125 Z M 959.324219 2725.78125 "/>
<path fill-rule="nonzero" fill="rgb(100%, 100%, 100%)" fill-opacity="1" d="M 1644.699219 1706.398438 C 1645.589844 1709.949219 1647.359375 1717.03125 1656.441406 1723.449219 C 1665.519531 1729.859375 1681.898438 1735.621094 1701.820312 1740.039062 C 1721.730469 1744.46875 1745.191406 1747.558594 1772.421875 1746.238281 C 1799.640625 1744.910156 1830.621094 1739.148438 1850.761719 1733.179688 C 1870.898438 1727.199219 1880.191406 1721 1882.851562 1713.269531 C 1885.511719 1705.53125 1881.519531 1696.230469 1867.140625 1682.949219 C 1852.761719 1669.671875 1827.96875 1652.410156 1798.539062 1645.539062 C 1769.089844 1638.671875 1735.011719 1642.210938 1708.441406 1653.5 C 1681.878906 1664.789062 1662.851562 1683.820312 1653.328125 1693.339844 C 1643.808594 1702.859375 1643.808594 1702.859375 1644.699219 1706.410156 Z M 1644.699219 1706.398438 "/>
<path fill-rule="nonzero" fill="rgb(100%, 100%, 100%)" fill-opacity="1" d="M 2143.789062 1693.121094 C 2140.460938 1697.988281 2133.820312 1707.730469 2135.160156 1716.359375 C 2136.5 1725 2145.789062 1732.519531 2165.929688 1737.828125 C 2186.070312 1743.140625 2217.058594 1746.230469 2246.050781 1746.230469 C 2275.039062 1746.230469 2302.039062 1743.128906 2320.628906 1738.710938 C 2339.21875 1734.28125 2349.398438 1728.53125 2354.269531 1720.121094 C 2359.140625 1711.71875 2358.699219 1700.660156 2351.398438 1689.808594 C 2344.109375 1678.960938 2329.949219 1668.339844 2310.910156 1660.808594 C 2291.878906 1653.28125 2267.96875 1648.859375 2244.730469 1649.960938 C 2221.488281 1651.058594 2198.910156 1657.699219 2182.75 1665.011719 C 2166.589844 1672.308594 2156.851562 1680.28125 2151.980469 1684.261719 C 2147.109375 1688.25 2147.109375 1688.25 2143.789062 1693.121094 Z M 2143.789062 1693.121094 "/>
<path fill-rule="nonzero" fill="rgb(4.315186%, 4.315186%, 4.315186%)" fill-opacity="1" d="M 1874.109375 686.460938 C 1712.480469 686.269531 1540.839844 726.300781 1397.699219 850.601562 C 1394.128906 853.75 1391.921875 858.171875 1391.53125 862.921875 L 1339.21875 1502.789062 C 1338.589844 1512.328125 1345.410156 1520.75 1354.859375 1522.179688 L 1362.179688 1623.710938 C 1354.390625 1626.019531 1347.128906 1629.738281 1340.828125 1634.78125 C 1305.480469 1663.058594 1295.359375 1720.25 1306.421875 1786.621094 C 1327.980469 1915.980469 1449.378906 1967.589844 1462.839844 1973.121094 C 1464.53125 1976.589844 1477.800781 2003.710938 1493.25 2036.058594 L 1481.058594 2339.890625 C 1466.519531 2344.460938 1443.628906 2351.808594 1418.671875 2360.589844 C 1398.691406 2367.609375 1378.210938 2375.308594 1361.058594 2382.78125 C 1352.488281 2386.519531 1344.710938 2390.191406 1338.109375 2393.910156 C 1331.511719 2397.609375 1326.121094 2400.621094 1320.839844 2406.960938 C 1314.5 2414.570312 1313.210938 2420.820312 1310.71875 2429.289062 C 1308.230469 2437.761719 1305.960938 2447.871094 1303.699219 2459.261719 C 1299.179688 2482.039062 1294.820312 2509.761719 1291.109375 2536.859375 C 1284.578125 2584.480469 1281.089844 2619.289062 1280.011719 2629.628906 C 1268.890625 2632.359375 1165.269531 2657.710938 1041.320312 2691.179688 C 976.117188 2708.789062 908.453125 2727.800781 852.105469 2745.328125 C 808.414062 2758.921875 772.421875 2770.949219 747.5 2782.105469 C 755.789062 2792.144531 764.210938 2802.074219 772.769531 2811.886719 C 794.695312 2803.097656 826.121094 2792.101562 863.066406 2780.609375 C 918.648438 2763.320312 985.867188 2744.371094 1050.820312 2726.839844 C 1180.710938 2691.769531 1301.230469 2662.320312 1301.230469 2662.320312 C 1308.808594 2660.46875 1314.398438 2654.039062 1315.179688 2646.28125 C 1315.179688 2646.28125 1320.320312 2595.308594 1327.640625 2541.921875 C 1331.300781 2515.21875 1335.589844 2487.890625 1339.851562 2466.410156 C 1341.980469 2455.679688 1344.039062 2446.371094 1346.019531 2439.648438 C 1347.410156 2434.910156 1349.320312 2431.28125 1349.691406 2430.300781 C 1350.691406 2429.53125 1352.941406 2427.769531 1356.140625 2425.96875 C 1361.019531 2423.21875 1367.890625 2420.019531 1375.75 2416.589844 C 1391.460938 2409.738281 1411.378906 2402.230469 1430.878906 2395.371094 C 1448.75 2389.089844 1465.820312 2383.5 1479.511719 2379.109375 L 1476.269531 2459.640625 C 1475.949219 2466.519531 1479.539062 2473 1485.511719 2476.421875 C 1485.511719 2476.421875 1559.601562 2519.089844 1646.121094 2561.910156 C 1689.378906 2583.320312 1735.828125 2604.851562 1778 2621.121094 C 1820.179688 2637.390625 1857.230469 2648.859375 1886.898438 2648.859375 C 1944.480469 2648.859375 2009.679688 2610.910156 2063.691406 2574.609375 C 2117.699219 2538.300781 2159.289062 2502.070312 2159.289062 2502.070312 C 2163.308594 2498.558594 2165.601562 2493.480469 2165.578125 2488.140625 L 2165.578125 2478.359375 C 2166.140625 2478.160156 2166.761719 2477.980469 2167.320312 2477.78125 C 2174.800781 2475.070312 2178.539062 2471.199219 2182.980469 2466.800781 C 2187.429688 2462.390625 2192.011719 2457.050781 2196.910156 2450.78125 C 2206.71875 2438.230469 2217.878906 2421.808594 2230.339844 2402.421875 C 2230.398438 2402.289062 2230.46875 2402.230469 2230.53125 2402.109375 C 2234.308594 2405.269531 2238.671875 2409.738281 2243.28125 2416.078125 C 2257.820312 2436.078125 2274.511719 2475.300781 2274.511719 2550.660156 C 2274.488281 2560.25 2281.839844 2568.25 2291.390625 2569.050781 C 2291.390625 2569.050781 2460.808594 2583.730469 2639.019531 2614.789062 C 2728.121094 2630.328125 2819.429688 2649.910156 2892.011719 2673.511719 C 2962.050781 2696.289062 3013.480469 2725.480469 3028.359375 2748.03125 C 3036.269531 2737.871094 3044.050781 2727.601562 3051.691406 2717.21875 C 3023.300781 2682.949219 2969.390625 2659.960938 2903.359375 2638.480469 C 2827.878906 2613.929688 2735.378906 2594.128906 2645.300781 2578.429688 C 2471.730469 2548.171875 2319.128906 2535.058594 2307.308594 2534.019531 C 2304.03125 2468 2291.160156 2419.261719 2273.148438 2394.488281 C 2265.339844 2383.75 2257.269531 2376.101562 2250.140625 2370.738281 C 2270.21875 2337.921875 2292.121094 2300.148438 2313.730469 2261.648438 C 2342.679688 2210.050781 2371.171875 2157.289062 2393.660156 2114.101562 C 2416.148438 2070.910156 2432.28125 2038.339844 2438.429688 2022.960938 C 2442.558594 2012.640625 2444.75 1999.96875 2447.460938 1981.859375 C 2450.160156 1963.761719 2452.769531 1941.140625 2455.351562 1915.640625 C 2460.511719 1864.621094 2465.410156 1801.878906 2469.648438 1740.730469 C 2477.699219 1624.648438 2483.121094 1521 2483.691406 1510.089844 C 2495.738281 1512.511719 2506.730469 1502.671875 2505.660156 1490.421875 L 2446.589844 837.5 C 2446.019531 831.210938 2442.210938 825.671875 2436.578125 822.820312 C 2436.578125 822.820312 2278.699219 741.949219 2070.601562 704.78125 C 2018.578125 695.480469 1963.199219 688.910156 1906.269531 687.019531 C 1895.601562 686.640625 1884.871094 686.449219 1874.089844 686.449219 Z M 1864.308594 723.339844 C 1933.339844 722.679688 2001.011719 729.761719 2064.191406 741.050781 C 2257.460938 775.570312 2398.070312 845.441406 2410.808594 851.828125 L 2464.960938 1449.859375 C 2449.871094 1438.789062 2433.828125 1426.941406 2403.898438 1413.21875 C 2328.449219 1378.640625 2198.871094 1340.160156 1978.710938 1320.941406 C 1757.011719 1301.589844 1598.609375 1343.511719 1495.640625 1390.761719 C 1416.539062 1427.058594 1396.679688 1451.789062 1379.070312 1468.488281 L 1427.429688 874.78125 C 1522.21875 794.320312 1630.039062 751.300781 1739.289062 733.648438 C 1781.011719 726.910156 1822.898438 723.738281 1864.308594 723.339844 Z M 1860.910156 1353.039062 C 1896.890625 1352.78125 1935.070312 1354.179688 1975.5 1357.710938 C 2192.660156 1376.671875 2318.160156 1414.558594 2388.480469 1446.789062 C 2422.121094 1462.210938 2443.058594 1476.21875 2455.570312 1486.328125 C 2450.628906 1489.539062 2447.519531 1494.921875 2447.199219 1500.800781 C 2447.199219 1500.800781 2441.339844 1616.261719 2432.890625 1738.128906 C 2428.671875 1799.070312 2423.808594 1861.640625 2418.71875 1911.960938 C 2416.179688 1937.109375 2413.621094 1959.191406 2411.050781 1976.339844 C 2408.488281 1993.480469 2405.359375 2006.570312 2404.28125 2009.269531 C 2400.019531 2019.929688 2383.289062 2054.269531 2360.980469 2097.089844 C 2338.679688 2139.921875 2310.410156 2192.308594 2281.671875 2243.53125 C 2257.539062 2286.539062 2233.03125 2328.671875 2211.449219 2363.421875 C 2208.679688 2365.820312 2206.691406 2369 2205.730469 2372.53125 C 2203.601562 2375.910156 2201.460938 2379.328125 2199.398438 2382.539062 C 2187.289062 2401.378906 2176.410156 2417.179688 2167.820312 2428.179688 C 2163.53125 2433.679688 2159.789062 2437.949219 2157.078125 2440.628906 C 2155.238281 2442.449219 2153.691406 2443.320312 2153.648438 2443.441406 C 2147.390625 2445.359375 2130.058594 2448.308594 2109.210938 2449.910156 C 2087.191406 2451.601562 2060.429688 2452.390625 2033.488281 2452.390625 C 1979.601562 2452.390625 1922.261719 2447.820312 1906.171875 2442.871094 C 1906.609375 2442.988281 1896.160156 2437.449219 1884.328125 2428.449219 C 1872.511719 2419.449219 1857.511719 2406.941406 1840.679688 2392.171875 C 1807.019531 2362.628906 1765.960938 2324.039062 1726.199219 2285.359375 C 1686.441406 2246.679688 1647.878906 2207.871094 1619.261719 2177.789062 C 1604.949219 2162.761719 1593.128906 2149.929688 1584.960938 2140.53125 C 1580.878906 2135.839844 1577.640625 2131.980469 1575.710938 2129.441406 C 1574.75 2128.171875 1574.140625 2127.140625 1573.96875 2126.851562 C 1572.871094 2122.929688 1571.738281 2119.550781 1569.789062 2114.75 C 1567.230469 2108.488281 1563.921875 2100.828125 1560.050781 2092.179688 C 1552.308594 2074.871094 1542.320312 2053.640625 1532.519531 2032.960938 C 1531.730469 2031.300781 1531.160156 2030.140625 1530.378906 2028.480469 L 1530.429688 2027.28125 C 1530.679688 2020.820312 1527.511719 2014.710938 1522.109375 2011.179688 C 1507.089844 1979.761719 1493.929688 1952.539062 1493.929688 1952.539062 C 1491.890625 1948.410156 1488.359375 1945.199219 1484.058594 1943.539062 C 1484.058594 1943.539062 1361.699219 1893.921875 1342.820312 1780.589844 C 1333.058594 1722.019531 1347.191406 1676.878906 1363.898438 1663.511719 C 1367.238281 1660.839844 1370.53125 1658.988281 1374.148438 1658.011719 C 1376.960938 1659.320312 1380.058594 1659.898438 1383.148438 1659.699219 C 1385.011719 1659.570312 1386.839844 1659.128906 1388.570312 1658.46875 C 1390.351562 1658.980469 1392.230469 1659.550781 1394.25 1660.320312 C 1406.710938 1665.058594 1423.261719 1677.140625 1441.679688 1699.210938 C 1441.429688 1703.78125 1442.828125 1708.289062 1445.679688 1711.859375 C 1452.089844 1719.78125 1463.691406 1720.988281 1471.601562 1714.589844 C 1471.601562 1714.589844 1617.949219 1595.648438 1610.960938 1387.339844 C 1678.460938 1367.839844 1761.261719 1353.828125 1860.910156 1353.039062 Z M 1574.359375 1398.921875 C 1575.480469 1541.160156 1499.921875 1634.75 1465.320312 1670.109375 C 1445.898438 1647.878906 1426.769531 1633.148438 1407.328125 1625.78125 C 1404.609375 1624.738281 1401.839844 1623.890625 1399.089844 1623.191406 L 1390.140625 1498.789062 C 1411.179688 1480.910156 1450.441406 1452.03125 1511.070312 1424.210938 C 1530.078125 1415.488281 1551.171875 1406.921875 1574.359375 1398.921875 Z M 2262.910156 1511.140625 C 2243.738281 1511.199219 2225.558594 1513.800781 2209.378906 1517.441406 C 2169.570312 1526.410156 2142.039062 1541.761719 2142.039062 1541.761719 C 2133.039062 1546.519531 2129.601562 1557.679688 2134.371094 1566.679688 C 2139.128906 1575.679688 2150.308594 1579.109375 2159.308594 1574.320312 C 2159.308594 1574.320312 2257.171875 1524.46875 2333.101562 1563.949219 C 2342.128906 1568.621094 2353.230469 1565.089844 2357.910156 1556.070312 C 2362.570312 1547.03125 2359.019531 1535.929688 2349.988281 1531.261719 C 2321.019531 1516.191406 2290.921875 1511 2262.910156 1511.140625 Z M 1756.261719 1521.230469 C 1744.980469 1521.25 1734.019531 1522.03125 1723.621094 1523.269531 L 1723.621094 1523.238281 C 1676.078125 1528.890625 1640.339844 1544.480469 1640.339844 1544.480469 C 1630.949219 1548.371094 1626.480469 1559.128906 1630.359375 1568.519531 C 1634.25 1577.910156 1645 1582.378906 1654.398438 1578.511719 C 1654.398438 1578.511719 1782.210938 1529.460938 1854.25 1589.5 C 1862.058594 1595.980469 1873.628906 1594.929688 1880.140625 1587.160156 C 1886.640625 1579.351562 1885.601562 1567.75 1877.808594 1561.238281 C 1840.878906 1530.460938 1796.550781 1521.140625 1756.261719 1521.230469 Z M 2261.078125 1620.558594 C 2241.960938 1620.679688 2223.609375 1624.230469 2206.898438 1629.339844 C 2155.980469 1644.898438 2118.210938 1675.601562 2118.210938 1675.601562 C 2110.320312 1682.011719 2109.121094 1693.601562 2115.519531 1701.5 C 2121.921875 1709.390625 2133.511719 1710.609375 2141.410156 1704.21875 C 2141.410156 1704.21875 2174.871094 1677.691406 2217.648438 1664.621094 C 2239.039062 1658.078125 2262.210938 1655.140625 2284.261719 1659.691406 C 2306.308594 1664.25 2327.71875 1675.640625 2347.898438 1701.25 C 2354.191406 1709.289062 2365.808594 1710.679688 2373.820312 1704.359375 C 2381.761719 1698.070312 2383.128906 1686.550781 2376.890625 1678.570312 C 2351.960938 1646.921875 2321.671875 1629.738281 2291.660156 1623.550781 C 2281.339844 1621.421875 2271.101562 1620.511719 2261.089844 1620.558594 Z M 1763.160156 1623.710938 C 1741.488281 1623.648438 1721.660156 1627.5 1704.359375 1633.421875 C 1654.050781 1650.671875 1623.308594 1684.359375 1623.308594 1684.359375 C 1616.460938 1691.890625 1617.011719 1703.539062 1624.539062 1710.390625 C 1632.039062 1717.269531 1643.691406 1716.78125 1650.570312 1709.269531 C 1650.570312 1709.269531 1675.539062 1682.300781 1716.328125 1668.308594 C 1757.128906 1654.328125 1811.601562 1652.019531 1878.539062 1707.53125 C 1886.390625 1714.078125 1898.078125 1712.980469 1904.570312 1705.078125 C 1911.039062 1697.238281 1909.929688 1685.640625 1902.089844 1679.160156 C 1864.421875 1647.921875 1827.53125 1632.160156 1793.789062 1626.371094 C 1783.25 1624.570312 1773.019531 1623.730469 1763.160156 1623.710938 Z M 2172.121094 2087.980469 C 2168.859375 2087.859375 2165.628906 2088.640625 2162.761719 2090.191406 C 2122.160156 2111.941406 2033.441406 2115.75 1957.359375 2111.050781 C 1881.289062 2106.351562 1817.101562 2095.140625 1817.101562 2095.140625 C 1800.769531 2092.398438 1789.410156 2110.921875 1799.230469 2124.238281 C 1847.769531 2189.859375 1896.871094 2224.449219 1944.171875 2237 C 1991.46875 2249.558594 2035.5 2239.5 2071.351562 2221.339844 C 2143.050781 2185.019531 2186.941406 2116.460938 2186.941406 2116.460938 C 2193.25 2106.761719 2189.160156 2093.699219 2178.429688 2089.339844 C 2176.421875 2088.519531 2174.289062 2088.058594 2172.121094 2087.988281 Z M 1527.171875 2109.011719 C 1530.570312 2116.648438 1533.511719 2123.519531 1535.628906 2128.699219 C 1537.910156 2134.308594 1539.398438 2139.410156 1539.078125 2137.808594 C 1540.171875 2143.269531 1541.5 2144.46875 1542.640625 2146.320312 C 1543.789062 2148.179688 1544.949219 2149.78125 1546.339844 2151.628906 C 1549.140625 2155.320312 1552.800781 2159.648438 1557.191406 2164.710938 C 1566 2174.828125 1578.070312 2187.921875 1592.609375 2203.191406 C 1621.691406 2233.75 1660.460938 2272.769531 1700.53125 2311.75 C 1740.601562 2350.730469 1781.921875 2389.710938 1816.371094 2419.941406 C 1833.589844 2435.050781 1849.050781 2447.941406 1862.011719 2457.800781 C 1874.96875 2467.660156 1883.621094 2474.429688 1895.320312 2478.03125 C 1924.359375 2486.960938 1978.050781 2489.269531 2033.488281 2489.269531 C 2061.210938 2489.269531 2088.75 2488.328125 2112.070312 2486.539062 C 2115.179688 2486.289062 2117.96875 2486.039062 2120.910156 2485.78125 C 2107.980469 2496.671875 2080.648438 2518.859375 2043.230469 2544.019531 C 1991.378906 2578.859375 1926.519531 2612.121094 1886.921875 2612.121094 C 1868 2612.121094 1831.679688 2602.308594 1791.210938 2586.691406 C 1750.730469 2571.070312 1705.179688 2550.078125 1662.539062 2528.980469 C 1582.410156 2489.320312 1521.671875 2454.191406 1513.539062 2449.53125 L 1517 2362.910156 C 1519.960938 2358.351562 1520.769531 2352.710938 1519.199219 2347.511719 C 1518.820312 2346.390625 1518.339844 2345.308594 1517.761719 2344.28125 Z M 1874.601562 2138.679688 C 1901.289062 2142.359375 1911.410156 2145.089844 1955.160156 2147.789062 C 2006.199219 2150.941406 2058.878906 2148.53125 2107.359375 2140.640625 C 2089.460938 2160.269531 2085.949219 2172.570312 2054.699219 2188.398438 C 2024.609375 2203.640625 1990.960938 2211.238281 1953.660156 2201.339844 C 1930.039062 2195.070312 1901.71875 2163.28125 1874.601562 2138.679688 Z M 2316.949219 2597.570312 C 2312.070312 2597.941406 2307.539062 2600.238281 2304.359375 2603.960938 C 2244.28125 2674.050781 2161.019531 2791.84375 2161.019531 2791.84375 C 2155.140625 2800.125 2157.089844 2811.59375 2165.351562 2817.492188 C 2173.648438 2823.453125 2185.230469 2821.515625 2191.128906 2813.164062 C 2191.128906 2813.164062 2274.640625 2695.371094 2332.371094 2628.03125 C 2339.039062 2620.300781 2338.160156 2608.640625 2330.410156 2602 C 2326.691406 2598.78125 2321.851562 2597.191406 2316.949219 2597.570312 Z M 1377.058594 2646.660156 C 1370.929688 2646.28125 1365.019531 2649.03125 1361.308594 2653.921875 C 1355.160156 2662 1356.710938 2673.53125 1364.769531 2679.710938 C 1364.769531 2679.710938 1426.890625 2726.960938 1509.949219 2777.78125 C 1593.011719 2828.609375 1696.558594 2883.554688 1785.039062 2899.167969 C 1795.058594 2900.941406 1804.609375 2894.253906 1806.378906 2884.234375 C 1808.160156 2874.214844 1801.46875 2864.65625 1791.449219 2862.886719 C 1713.039062 2849.046875 1610.578125 2796.109375 1529.210938 2746.308594 C 1447.839844 2696.519531 1387.101562 2650.359375 1387.101562 2650.359375 C 1384.191406 2648.160156 1380.699219 2646.871094 1377.058594 2646.660156 Z M 1852.128906 2685.878906 C 1841.898438 2685.839844 1833.589844 2694.140625 1833.640625 2704.371094 C 1833.640625 2704.371094 1833.640625 2764.632812 1835.488281 2832.421875 C 1837.339844 2900.210938 1840.160156 2973.03125 1848.949219 3008.203125 C 1853.671875 3027.078125 1866.578125 3055.800781 1883.980469 3092.464844 C 1901.378906 3129.125 1923.058594 3172.257812 1944.28125 3213.46875 C 1966.949219 3257.492188 1986.691406 3292.359375 2000.628906 3316.195312 C 2014.109375 3315.007812 2027.578125 3313.628906 2041.019531 3312.058594 C 2027.730469 3289.824219 2004.769531 3250.296875 1977.109375 3196.574219 C 1955.988281 3155.570312 1934.378906 3112.703125 1917.269531 3076.660156 C 1900.160156 3040.617188 1887.359375 3009.886719 1884.71875 2999.308594 C 1878.789062 2975.582031 1874.199219 2898.632812 1872.371094 2831.441406 C 1870.539062 2764.25 1870.519531 2704.371094 1870.519531 2704.371094 C 1870.558594 2694.179688 1862.320312 2685.890625 1852.128906 2685.871094 Z M 2086.230469 2710.550781 C 2077.679688 2711.238281 2070.75 2717.738281 2069.5 2726.210938 C 2069.5 2726.210938 2043.769531 2898.945312 2074.660156 3027.707031 C 2105.378906 3155.671875 2183.109375 3228.265625 2183.109375 3228.265625 C 2190.53125 3235.207031 2202.179688 3234.820312 2209.128906 3227.394531 C 2216.078125 3219.964844 2215.691406 3208.3125 2208.261719 3201.363281 C 2208.261719 3201.363281 2138.75 3136.507812 2110.570312 3019.054688 C 2082.570312 2902.398438 2105.890625 2731.519531 2105.890625 2731.519531 C 2107.339844 2721.460938 2100.378906 2712.128906 2090.328125 2710.660156 L 2090.328125 2710.679688 C 2088.96875 2710.488281 2087.589844 2710.429688 2086.21875 2710.558594 Z M 2086.230469 2710.550781 "/>
<path fill-rule="nonzero" fill="rgb(74.021912%, 36.473083%, 35.301208%)" fill-opacity="1" d="M 2095.121094 1908.558594 L 2008.351562 1991.859375 C 2008.351562 1991.859375 2143.710938 2026.570312 2095.121094 1908.558594 Z M 2095.121094 1908.558594 "/>
<path fill-rule="nonzero" fill="rgb(4.315186%, 4.315186%, 4.315186%)" fill-opacity="1" d="M 1805.460938 1689.511719 C 1805.460938 1702.859375 1801.058594 1715.648438 1793.238281 1725.089844 C 1785.410156 1734.519531 1774.800781 1739.820312 1763.738281 1739.820312 C 1752.671875 1739.820312 1742.058594 1734.519531 1734.230469 1725.089844 C 1726.410156 1715.648438 1722.019531 1702.859375 1722.019531 1689.511719 C 1722.019531 1661.730469 1740.691406 1639.199219 1763.738281 1639.199219 C 1786.78125 1639.199219 1805.460938 1661.730469 1805.460938 1689.511719 Z M 1805.460938 1689.511719 "/>
<path fill-rule="nonzero" fill="rgb(4.315186%, 4.315186%, 4.315186%)" fill-opacity="1" d="M 2264.390625 1689.511719 C 2264.390625 1702.859375 2260 1715.648438 2252.179688 1725.089844 C 2244.351562 1734.519531 2233.738281 1739.820312 2222.679688 1739.820312 C 2211.609375 1739.820312 2201 1734.519531 2193.171875 1725.089844 C 2185.351562 1715.648438 2180.949219 1702.859375 2180.949219 1689.511719 C 2180.949219 1661.730469 2199.628906 1639.199219 2222.679688 1639.199219 C 2245.71875 1639.199219 2264.390625 1661.730469 2264.390625 1689.511719 Z M 2264.390625 1689.511719 "/>
<path fill-rule="nonzero" fill="rgb(74.021912%, 36.473083%, 35.301208%)" fill-opacity="1" d="M 1473.929688 1865.308594 C 1469.859375 1844.96875 1461.71875 1804.28125 1453.269531 1776.109375 C 1444.820312 1747.941406 1436.058594 1732.289062 1426.671875 1725.089844 C 1417.289062 1717.878906 1407.269531 1719.128906 1397.871094 1726.328125 C 1388.46875 1733.53125 1379.710938 1746.679688 1379.398438 1766.089844 C 1379.089844 1785.5 1387.230469 1811.171875 1403.511719 1833.390625 C 1419.789062 1855.609375 1444.210938 1874.390625 1457.96875 1882.519531 C 1471.738281 1890.648438 1474.871094 1888.148438 1476.429688 1886.898438 C 1478 1885.648438 1478 1885.648438 1473.929688 1865.308594 Z M 1473.929688 1865.308594 "/>
<path fill-rule="nonzero" fill="rgb(4.315186%, 4.315186%, 4.315186%)" fill-opacity="1" d="M 1645.589844 833.339844 C 1623.941406 833.390625 1598.25 838.769531 1570.039062 848.359375 C 1522.671875 864.441406 1468.148438 892.421875 1398.910156 933.890625 C 1389.191406 1010.089844 1390.808594 1089.5 1380.738281 1165.621094 C 1377.578125 1263.851562 1355.679688 1362.871094 1359.820312 1459.308594 C 1393.429688 1507.839844 1433.699219 1437.128906 1470.488281 1429.929688 C 1575.53125 1376.621094 1690.261719 1349.988281 1806.121094 1344.261719 C 1797.980469 1300.289062 1774.03125 1252.820312 1755.941406 1208.941406 C 1730.890625 1148.21875 1717.128906 1094.410156 1715.878906 1031.808594 C 1714.621094 969.199219 1725.890625 897.828125 1705.859375 862.140625 C 1694.601562 842.070312 1673.441406 833.28125 1645.589844 833.339844 Z M 1645.589844 833.339844 "/>
<path fill-rule="nonzero" fill="rgb(4.315186%, 4.315186%, 4.315186%)" fill-opacity="1" d="M 1875 375 C 1047.191406 375 375 1047.191406 375 1875 C 375 2702.800781 1047.199219 3375 1875 3375 C 2702.808594 3375 3375 2702.800781 3375 1875 C 3375 1047.191406 2702.808594 375 1875 375 Z M 1875 480.21875 C 2645.910156 480.21875 3269.78125 1104.089844 3269.78125 1875 C 3269.78125 2645.910156 2645.910156 3269.65625 1875 3269.65625 C 1104.089844 3269.65625 480.222656 2645.910156 480.222656 1875 C 480.222656 1104.089844 1104.089844 480.21875 1875 480.21875 Z M 1875 480.21875 "/>
</svg>
